<svg width="125" height="30" viewBox="0 0 125 30" fill="none" xmlns="http://www.w3.org/2000/svg">
<path d="M3.6986 23L0.886097 1.18182H7.49121L8.25826 14.6051H8.42871L14.1816 1.18182H19.3804L20.7014 14.6477H20.8719L26.0708 1.18182H32.6759L22.6191 23H16.9514L15.2895 10.8125H15.1191L9.36621 23H3.6986ZM36.9506 23.2983C35.2034 23.2983 33.7545 22.9645 32.604 22.2969C31.4534 21.6222 30.6437 20.6562 30.175 19.3991C29.7062 18.1349 29.621 16.6222 29.9193 14.8608C30.2034 13.1705 30.7893 11.6932 31.6771 10.429C32.572 9.16477 33.6977 8.18111 35.0542 7.47798C36.4179 6.77486 37.9449 6.4233 39.6352 6.4233C40.871 6.4233 41.9541 6.61506 42.8845 6.99858C43.822 7.3821 44.5855 7.93963 45.175 8.67116C45.7645 9.4027 46.1622 10.2869 46.3682 11.3239C46.5812 12.3537 46.5812 13.5185 46.3682 14.8182L46.1551 16.1818H31.5386L32.05 12.9432H41.2545C41.3256 12.4744 41.2794 12.0625 41.116 11.7074C40.9598 11.3452 40.7077 11.0646 40.3596 10.8658C40.0187 10.6598 39.6068 10.5568 39.1238 10.5568C38.6409 10.5568 38.1863 10.6598 37.7602 10.8658C37.3412 11.0717 36.9825 11.3594 36.6842 11.7287C36.393 12.098 36.1977 12.5312 36.0983 13.0284L35.4591 16.4375C35.3738 16.9631 35.4058 17.4318 35.555 17.8438C35.7041 18.2557 35.9633 18.5788 36.3327 18.8132C36.702 19.0476 37.1778 19.1648 37.7602 19.1648C38.1579 19.1648 38.5344 19.1115 38.8895 19.005C39.2517 18.8913 39.5713 18.728 39.8483 18.5149C40.1324 18.2947 40.3596 18.0284 40.5301 17.7159H45.8994C45.5159 18.8523 44.9086 19.8395 44.0777 20.6776C43.2538 21.5085 42.2382 22.1548 41.0308 22.6165C39.8305 23.071 38.4704 23.2983 36.9506 23.2983ZM61.5519 8C61.6159 7.29688 61.4454 6.74645 61.0406 6.34872C60.6357 5.94389 59.9539 5.74148 58.9951 5.74148C58.3843 5.74148 57.873 5.8125 57.461 5.95455C57.0562 6.09659 56.7401 6.2919 56.5129 6.54048C56.2927 6.78906 56.1542 7.0767 56.0974 7.40341C56.0335 7.65909 56.037 7.89347 56.108 8.10653C56.1862 8.3125 56.3318 8.50071 56.5448 8.67116C56.765 8.84162 57.0526 8.99432 57.4078 9.12926C57.77 9.2642 58.1997 9.38494 58.6968 9.49148L60.4014 9.875C61.5661 10.1307 62.5427 10.468 63.3311 10.8871C64.1265 11.299 64.7515 11.7891 65.2061 12.3572C65.6606 12.9254 65.9589 13.5611 66.1009 14.2642C66.2501 14.9673 66.2536 15.7344 66.1116 16.5653C65.8701 18 65.3126 19.2145 64.439 20.2088C63.5654 21.2031 62.4255 21.9595 61.0193 22.478C59.613 22.9964 57.9866 23.2557 56.14 23.2557C54.2508 23.2557 52.6457 22.9751 51.3247 22.4141C50.0107 21.8459 49.059 20.9794 48.4695 19.8146C47.8872 18.6428 47.7451 17.1477 48.0434 15.3295H53.6684C53.5832 15.9972 53.6542 16.5582 53.8815 17.0128C54.1088 17.4673 54.4745 17.8118 54.9788 18.0462C55.483 18.2805 56.1116 18.3977 56.8644 18.3977C57.5036 18.3977 58.0505 18.3196 58.5051 18.1634C58.9596 18.0071 59.3183 17.7905 59.5811 17.5135C59.8438 17.2365 60.0036 16.9205 60.0605 16.5653C60.1173 16.2386 60.0605 15.9474 59.89 15.6918C59.7195 15.4361 59.4106 15.2053 58.9632 14.9993C58.5157 14.7933 57.9014 14.6051 57.1201 14.4347L55.032 13.9659C53.1784 13.5398 51.7792 12.8366 50.8346 11.8565C49.89 10.8764 49.5562 9.53409 49.8332 7.82955C50.0605 6.4375 50.6322 5.22301 51.5484 4.18608C52.4717 3.14204 53.6436 2.33239 55.064 1.7571C56.4916 1.17472 58.0718 0.883522 59.8048 0.883522C61.5661 0.883522 63.0399 1.17827 64.2259 1.76776C65.4191 2.35724 66.2749 3.18466 66.7934 4.25C67.319 5.31534 67.461 6.56534 67.2195 8H61.5519ZM74.8421 13.7955L73.308 23H67.4273L71.0494 1.18182H76.7171L75.3108 9.74716H75.4813C76.0139 8.70312 76.7597 7.88991 77.7185 7.30753C78.6773 6.71804 79.7639 6.4233 80.9784 6.4233C82.129 6.4233 83.0878 6.68608 83.8548 7.21165C84.6219 7.73722 85.1652 8.46165 85.4848 9.38494C85.8044 10.3082 85.8648 11.3665 85.6659 12.5597L83.9188 23H78.0381L79.5722 13.7955C79.7 12.9858 79.597 12.3501 79.2632 11.8885C78.9365 11.4268 78.4003 11.196 77.6546 11.196C77.1716 11.196 76.7313 11.3026 76.3335 11.5156C75.9429 11.7216 75.6162 12.0199 75.3534 12.4105C75.0977 12.794 74.9273 13.2557 74.8421 13.7955ZM94.6201 23.2983C92.8445 23.2983 91.3815 22.9467 90.2309 22.2436C89.0874 21.5334 88.2849 20.5462 87.8232 19.282C87.3616 18.0107 87.2693 16.5369 87.5463 14.8608C87.8232 13.1847 88.4021 11.7145 89.2828 10.4503C90.1634 9.17898 91.2963 8.19176 92.6812 7.48864C94.0661 6.77841 95.6499 6.4233 97.4326 6.4233C99.2011 6.4233 100.657 6.77841 101.801 7.48864C102.951 8.19176 103.757 9.17898 104.219 10.4503C104.688 11.7145 104.783 13.1847 104.506 14.8608C104.229 16.5369 103.647 18.0107 102.759 19.282C101.872 20.5462 100.735 21.5334 99.3502 22.2436C97.9724 22.9467 96.3957 23.2983 94.6201 23.2983ZM95.3445 18.9517C95.8559 18.9517 96.3211 18.7848 96.7401 18.451C97.1663 18.1172 97.5285 17.6413 97.8268 17.0234C98.1322 16.4055 98.3559 15.6705 98.498 14.8182C98.64 13.9588 98.6613 13.2237 98.5619 12.6129C98.4624 11.995 98.2565 11.5192 97.944 11.1854C97.6315 10.8516 97.2195 10.6847 96.7082 10.6847C96.1968 10.6847 95.7281 10.8516 95.3019 11.1854C94.8758 11.5192 94.5136 11.995 94.2153 12.6129C93.917 13.2237 93.6968 13.9588 93.5548 14.8182C93.4127 15.6705 93.3879 16.4055 93.4802 17.0234C93.5796 17.6413 93.7856 18.1172 94.0981 18.451C94.4177 18.7848 94.8332 18.9517 95.3445 18.9517ZM104.549 29.1364L108.32 6.63636H114.158L113.69 9.49148H113.818C114.116 8.9375 114.506 8.42969 114.989 7.96804C115.479 7.49929 116.055 7.12642 116.715 6.84943C117.383 6.56534 118.122 6.4233 118.931 6.4233C120.011 6.4233 120.987 6.71094 121.861 7.28622C122.734 7.86151 123.377 8.76704 123.789 10.0028C124.201 11.2386 124.244 12.8437 123.917 14.8182C123.604 16.7074 123.047 18.2734 122.244 19.5163C121.449 20.7592 120.511 21.6861 119.432 22.2969C118.359 22.9077 117.241 23.2131 116.076 23.2131C115.309 23.2131 114.645 23.0888 114.084 22.8402C113.523 22.5845 113.072 22.2401 112.731 21.8068C112.39 21.3665 112.156 20.8693 112.028 20.3153H111.9L110.451 29.1364H104.549ZM112.71 14.8182C112.582 15.6136 112.571 16.3026 112.678 16.8849C112.791 17.4602 113.015 17.9077 113.349 18.2273C113.69 18.5398 114.13 18.696 114.67 18.696C115.21 18.696 115.693 18.5433 116.119 18.2379C116.545 17.9254 116.907 17.4815 117.205 16.9062C117.504 16.3239 117.724 15.6278 117.866 14.8182C117.994 14.0085 118.004 13.3161 117.898 12.7408C117.791 12.1584 117.575 11.7145 117.248 11.4091C116.921 11.0966 116.488 10.9403 115.948 10.9403C115.408 10.9403 114.915 11.0966 114.467 11.4091C114.027 11.7145 113.654 12.1584 113.349 12.7408C113.051 13.3161 112.837 14.0085 112.71 14.8182Z" fill="#1876FB"/>
</svg>
